<?xml version="1.0" encoding="UTF-8"?>
<svg width="26px" height="24px" viewBox="0 0 26 24" version="1.1" xmlns="http://www.w3.org/2000/svg" xmlns:xlink="http://www.w3.org/1999/xlink">
    <!-- Generator: Sketch 61.2 (89653) - https://sketch.com -->
    <title>Basket Copy</title>
    <desc>Created with Sketch.</desc>
    <g id="Designs" stroke="none" stroke-width="1" fill="none" fill-rule="evenodd">
        <g id="Basket-Copy" fill="#FFFFFF" fill-rule="nonzero">
            <g id="noun_cart_1864278">
                <path d="M25.4298961,5.12693498 C24.9371748,4.48606811 24.1707194,4.09597523 23.3768905,4.09597523 L6.70648499,4.09597523 L6.18639023,2.03405573 C5.88528274,0.835913313 4.84509324,0 3.64066328,0 L0.848575651,0 C0.383227714,0 0,0.390092879 0,0.86377709 C0,1.3374613 0.383227714,1.72755418 0.848575651,1.72755418 L3.64066328,1.72755418 C4.0512644,1.72755418 4.40711871,2.00619195 4.51661234,2.42414861 L7.85616813,15.9659443 C8.15727562,17.1640867 9.19746513,18 10.4018951,18 L21.3238849,18 C22.5283149,18 23.5958778,17.1640867 23.8696119,15.9659443 L25.9226175,7.38390093 C26.1142313,6.60371517 25.9499909,5.76780186 25.4298961,5.12693498 Z M24.2528396,6.99380805 L22.199834,15.5758514 C22.0903403,15.993808 21.734486,16.2724458 21.3238849,16.2724458 L10.4018951,16.2724458 C9.99129396,16.2724458 9.63543965,15.993808 9.52594602,15.5758514 L7.14445952,5.85139319 L23.3768905,5.85139319 C23.6506246,5.85139319 23.9243587,5.99071207 24.0885991,6.21362229 C24.2528396,6.43653251 24.3349598,6.71517028 24.2528396,6.99380805 Z" id="Shape"></path>
                <path d="M11,18 C9.35576923,18 8,19.3557692 8,21 C8,22.6442308 9.35576923,24 11,24 C12.6442308,24 14,22.6442308 14,21 C14,19.3557692 12.6442308,18 11,18 Z M11,22.1826923 C10.3365385,22.1826923 9.81730769,21.6634615 9.81730769,21 C9.81730769,20.3365385 10.3365385,19.8173077 11,19.8173077 C11.6634615,19.8173077 12.1826923,20.3365385 12.1826923,21 C12.1826923,21.6346154 11.6346154,22.1826923 11,22.1826923 Z" id="Shape"></path>
                <path d="M20,18 C18.3557692,18 17,19.3557692 17,21 C17,22.6442308 18.3557692,24 20,24 C21.6442308,24 23,22.6442308 23,21 C22.9711538,19.3557692 21.6442308,18 20,18 Z M20,22.1826923 C19.3365385,22.1826923 18.8173077,21.6634615 18.8173077,21 C18.8173077,20.3365385 19.3365385,19.8173077 20,19.8173077 C20.6634615,19.8173077 21.1826923,20.3365385 21.1826923,21 C21.1826923,21.6346154 20.6346154,22.1826923 20,22.1826923 Z" id="Shape"></path>
            </g>
        </g>
    </g>
</svg>